<svg xmlns="http://www.w3.org/2000/svg" width="72" height="72" viewBox="0 0 72 72">
  <circle cx="36" cy="36" r="36" fill="#1B4332"/>
  <!-- Quill pen with circuit trace -->
  <path d="M44 22 C44 22 50 28 48 36 C46 44 38 48 36 50 L34 44 C36 42 40 38 40 34 C40 30 36 26 36 26 Z" fill="white" opacity="0.95"/>
  <path d="M36 50 L34 44 L32 46 Z" fill="white" opacity="0.7"/>
  <path d="M36 26 L28 22" stroke="white" stroke-width="1.5" stroke-linecap="round" opacity="0.5"/>
  <circle cx="27" cy="21.5" r="1.5" fill="white" opacity="0.5"/>
  <path d="M38 30 L42 26 M40 32 L46 30" stroke="white" stroke-width="1.2" stroke-linecap="round" opacity="0.4"/>
  <circle cx="43" cy="25" r="1.2" fill="white" opacity="0.4"/>
  <circle cx="47" cy="29.5" r="1.2" fill="white" opacity="0.4"/>
</svg>
